<svg xmlns="http://www.w3.org/2000/svg" viewBox="0 0 64 64">
  <defs><linearGradient id="g" x1="0" y1="0" x2="1" y2="1"><stop offset="0" stop-color="#00f0ff"/><stop offset="1" stop-color="#a855f7"/></linearGradient></defs>
  <rect width="64" height="64" rx="14" fill="#0a0e1a"/>
  <rect x="2.5" y="2.5" width="59" height="59" rx="12" fill="none" stroke="url(#g)" stroke-width="2.5"/>
  <g stroke="url(#g)" stroke-width="2.5" stroke-linecap="round">
    <rect x="20" y="20" width="24" height="24" rx="3" fill="none"/>
    <line x1="24" y1="13" x2="24" y2="20"/><line x1="32" y1="13" x2="32" y2="20"/><line x1="40" y1="13" x2="40" y2="20"/>
    <line x1="24" y1="44" x2="24" y2="51"/><line x1="32" y1="44" x2="32" y2="51"/><line x1="40" y1="44" x2="40" y2="51"/>
    <line x1="13" y1="24" x2="20" y2="24"/><line x1="13" y1="32" x2="20" y2="32"/><line x1="13" y1="40" x2="20" y2="40"/>
    <line x1="44" y1="24" x2="51" y2="24"/><line x1="44" y1="32" x2="51" y2="32"/><line x1="44" y1="40" x2="51" y2="40"/>
  </g>
  <circle cx="32" cy="32" r="4" fill="url(#g)"/>
</svg>
