<svg xmlns="http://www.w3.org/2000/svg" width="800" height="500" viewBox="0 0 800 500">
  <defs>
    <linearGradient id="bg" x1="0" y1="0" x2="1" y2="1">
      <stop offset="0" stop-color="#101828"/>
      <stop offset="1" stop-color="#0b1220"/>
    </linearGradient>
    <linearGradient id="acc" x1="0" y1="0" x2="1" y2="0">
      <stop offset="0" stop-color="#38bdf8"/>
      <stop offset="1" stop-color="#818cf8"/>
    </linearGradient>
  </defs>
  <rect width="800" height="500" fill="url(#bg)"/>
  <rect x="1" y="1" width="798" height="498" fill="none" stroke="rgba(255,255,255,0.10)" stroke-width="2" rx="16"/>
  <g stroke="rgba(255,255,255,0.05)" stroke-width="1">
    <line x1="0" y1="100" x2="800" y2="100"/>
    <line x1="0" y1="200" x2="800" y2="200"/>
    <line x1="0" y1="300" x2="800" y2="300"/>
    <line x1="0" y1="400" x2="800" y2="400"/>
    <line x1="160" y1="0" x2="160" y2="500"/>
    <line x1="320" y1="0" x2="320" y2="500"/>
    <line x1="480" y1="0" x2="480" y2="500"/>
    <line x1="640" y1="0" x2="640" y2="500"/>
  </g>
  <g transform="translate(400,205)">
    <rect x="-52" y="-52" width="104" height="104" rx="24" fill="rgba(56,189,248,0.08)" stroke="rgba(56,189,248,0.35)" stroke-width="2"/>
    <path d="M-26 8 L-8 -18 L6 2 L18 -16 L30 8 Z" fill="none" stroke="url(#acc)" stroke-width="4" stroke-linejoin="round" stroke-linecap="round"/>
    <circle cx="-26" cy="8" r="4" fill="#38bdf8"/>
    <circle cx="30" cy="8" r="4" fill="#38bdf8"/>
  </g>
  <text x="400" y="330" text-anchor="middle" font-family="PingFang SC, Microsoft YaHei, sans-serif" font-size="30" fill="#e8ecf8" font-weight="600">原内容图片已失效</text>
  <text x="400" y="368" text-anchor="middle" font-family="PingFang SC, Microsoft YaHei, sans-serif" font-size="16" fill="#9aa5c3">原图为考试截图 / 临时图床资源，已无法访问</text>
</svg>
